<?xml version="1.0" encoding="UTF-8" standalone="no"?>
<!DOCTYPE svg PUBLIC "-//W3C//DTD SVG 1.1//EN" "http://www.w3.org/Graphics/SVG/1.1/DTD/svg11.dtd">
<svg width="100%" height="100%" viewBox="0 0 2400 2400" version="1.1" xmlns="http://www.w3.org/2000/svg" xmlns:xlink="http://www.w3.org/1999/xlink" xml:space="preserve" xmlns:serif="http://www.serif.com/" style="fill-rule:evenodd;clip-rule:evenodd;stroke-linejoin:round;stroke-miterlimit:2;">
    <g id="ChatGPT-Image-14-de-jun.-de-2026--17_59_20.png" serif:id="ChatGPT Image 14 de jun. de 2026, 17_59_20.png" transform="matrix(2.34375,0,0,2.34375,0,0)">
        <path d="M453.556,516.933C420.411,520.606 419.191,522.566 417.585,519.448C416.132,516.626 417.319,509.367 425.925,467.59C428.129,456.889 431.146,448.431 428.663,449.828C428.265,450.053 412.339,477.348 410.937,479.751C383.445,526.869 383.28,527.95 375.615,529.88C362.462,533.193 358.429,534.782 354.862,521.414C353.459,516.154 350.595,505.42 342.281,454.54C342.016,452.922 341.808,444.946 339.886,446.829C338.511,448.175 340.018,448.723 335.027,470.386C325.663,511.031 321.169,544.738 319.484,545.469C300.15,553.856 299.932,553.188 281.248,563.05C280.431,563.482 270.32,568.819 270.259,559.501C270.221,553.613 299.356,416.051 301.993,403.6C307.701,376.648 308.924,371.055 336.505,371.121C367.128,371.194 371.953,374.294 377.165,406.551C383.811,447.677 383.514,455.617 386.914,449.8C422.544,388.836 423.703,371.87 455.5,371.595C483.417,371.353 494.892,370.644 489.145,395.42C484.07,417.301 466.091,501.211 464.119,510.417C462.632,517.354 460.567,516.033 453.556,516.933Z" style="fill:rgb(255,255,255);"/>
        <path d="M566.519,512.098C551.744,511.446 548.506,512.56 547.348,508.553C546.554,505.804 537.753,449.779 537.726,449.451C537.697,449.091 536.797,438.001 535.522,445.512C534.852,449.466 534.775,449.422 526.143,488.423C521.274,510.423 521.469,511.936 517.468,512.145C498.894,513.113 498.976,512.946 480.48,514.191C473.727,514.646 476.129,511.069 477.489,504.498C478.717,498.567 488.615,450.761 493.544,430.511C503.696,388.803 500.562,371.527 526.5,371.111C547.882,370.768 557.861,370.721 565.015,379.896C573.476,390.745 576.247,438.361 578.953,447.298C580.205,451.431 581.566,446.548 607.946,401.77C626.186,370.809 631.483,371.587 660.5,371.551C680.235,371.526 686.755,374.554 681.38,397.47C665.612,464.701 666.257,464.76 664.679,470.546C653.245,512.453 658.88,520.47 646.55,519.103C613.836,515.478 613.391,515.642 611.745,513.349C608.934,509.432 622.467,453.635 623.711,448.509C624.186,446.551 622.75,445.966 621.779,447.721C619.124,452.521 610.377,468.33 586.891,506.745C582.448,514.012 580.855,512.775 566.519,512.098Z" style="fill:rgb(255,255,255);"/>
        <path d="M568.476,524.957C571.195,525.148 637.272,527.799 693.38,541.93C717.892,548.104 732.316,555.599 726.709,556.996C725.14,557.387 631.826,537.191 503.538,546.926C467.45,549.664 409.487,558.307 409.539,560.501C409.566,561.634 412.926,563.279 410.662,568.571C407.038,577.041 393.195,574.229 397.205,565.397C398.111,563.402 398.579,562.168 396.503,562.626C394.151,563.146 370.835,568.3 367.416,570.382C366.642,570.852 366.757,571.064 359.775,606.546C358.976,610.605 361.967,608.442 380.501,607.893C385.041,607.758 383.113,619.304 378.546,619.814C376.887,619.999 347.281,621.714 346.493,621.527C342.064,620.478 345.291,612.838 348.91,592.564C349.097,591.515 350.764,582.18 351.381,579.477C352.393,575.045 350.812,575.376 350.497,575.469C342.795,577.75 307.644,591.602 290.78,608.773C282.64,617.061 281.965,624.163 272.705,620.032C266.251,617.153 232.627,585.984 330.372,553.124C369.277,540.045 425.096,532.248 433.448,531.081C503.058,521.358 564.275,524.834 568.476,524.957Z" style="fill:rgb(255,255,255);"/>
        <path d="M744.467,384.791C742.058,386.133 743.028,387.101 741.834,390.632C732.439,418.406 707.4,408.365 709.874,412.384C710.927,414.093 737.145,411.469 731.134,439.496C731.076,439.769 728.088,456.337 732.682,442.623C736.079,432.478 740.986,432.879 769.501,433.08C787.375,433.206 781.244,445.888 776.7,464.553C774.069,475.364 767.35,472.245 726.503,472.627C722.855,472.661 722.944,475.346 720.951,483.614C712.669,517.968 713.886,532.786 703.546,530.262C670.463,522.187 668.055,523.834 667.4,518.512C666.474,510.984 684.069,438.47 685.746,431.561C694.137,396.981 693.986,382.295 703.838,374.978C708.507,371.51 708.954,371.395 764.499,371.576C786.251,371.646 805.196,368.53 801.524,385.505C796.516,408.659 795.669,411.569 786.5,411.619C758.762,411.772 739.777,415.296 745.262,385.553C744.997,385.299 744.732,385.045 744.467,384.791Z" style="fill:rgb(255,255,255);"/>
        <path d="M484.854,610.568C490.262,582.951 490.114,583.007 491.361,577.457C492.22,573.633 502.284,574.564 503.082,575.871C505.314,579.524 506.019,574.861 513.491,573.444C541.411,568.152 538.58,612.468 511.5,615.498C502.347,616.523 498.763,612.087 498.332,611.945C496.652,611.392 497.246,612.746 494.665,624.54C493.243,631.034 492.07,631.157 485.5,631.158C479.304,631.158 481.63,627.051 484.854,610.568ZM520.906,592.5C519.744,579.58 505.881,583.431 501.898,589.773C491.506,606.321 519.011,611.845 520.906,592.5Z" style="fill:rgb(255,255,255);"/>
        <path d="M479.899,586.506C479.583,588.76 476.266,612.381 474.411,614.432C473.134,615.844 461.728,617.811 462.779,612.548C466.073,596.067 469.809,584.125 460.568,585.925C447.461,588.479 454.742,616.061 445.5,616.494C444.807,616.527 437.252,616.881 436.9,615.376C435.829,610.794 447.083,584.243 434.586,586.914C421.819,589.644 422.141,607.624 420.499,617.493C420.375,618.242 411.579,618.092 411.039,616.755C410.532,615.5 416.842,580.025 418.493,578.492C419.409,577.642 428.574,576.636 429.412,578.567C430.933,582.069 435.938,573.463 447.51,576.467C452.218,577.69 451.946,581.858 455.862,578.959C459.921,575.953 478.739,568.338 479.899,586.506Z" style="fill:rgb(255,255,255);"/>
        <path d="M672.867,593.581C668.338,612.569 669.413,614.115 666.461,614.187C665.743,614.204 658.298,614.385 657.513,613.487C657.268,613.206 657.093,610.222 654.676,611.827C639.144,622.149 619.515,607.494 629.793,586.642C635.572,574.917 652.165,567.83 662.255,575.935C664.683,577.885 664.15,574.286 666.564,573.785C667.316,573.628 674.257,572.185 676.119,574.747C677.018,575.984 676.389,576.132 672.867,593.581ZM641.145,600.726C653.41,615.179 671.251,585.385 653.516,583.352C645.265,582.406 636.311,591.934 641.145,600.726Z" style="fill:rgb(255,255,255);"/>
        <path d="M538.14,599.53C539.775,563.541 586.578,565.418 582.497,592.5C581.262,600.69 577.316,596.663 552.496,597.469C548.096,597.612 552.954,608.533 564.562,603.625C568.051,602.149 568.58,598.573 576.283,603.775C583.524,608.665 543.951,629.175 538.14,599.53ZM557.852,582.702C549.02,586.655 552.976,588.942 553.593,589.296C553.8,589.415 569.243,589.329 569.429,589.248C571.287,588.439 570.558,585.798 568.225,583.829C565.701,581.698 562.382,582.162 557.852,582.702Z" style="fill:rgb(255,255,255);"/>
        <path d="M695.388,574.136C697.469,573.658 705.148,571.438 714.284,575.905C722.903,580.119 720.068,585.731 710.529,586.733C708.399,586.957 702.161,579.664 697.66,583.706C690.001,590.583 719.191,587.332 716.67,601.525C711.899,628.393 662.491,610.594 682.659,602.885C690.204,600.001 690.416,602.918 691.653,604.356C694.781,607.992 704.057,606.521 703.492,602.502C703.259,600.85 694.385,598.522 693.55,598.303C678.647,594.394 679.515,580.04 695.388,574.136Z" style="fill:rgb(255,255,255);"/>
        <path d="M590.502,613.827C589.949,613.822 583.96,613.764 583.725,612.438C582.74,606.888 588.035,602.638 602.461,588.461C602.991,587.94 608.116,583.704 605.463,583.601C591.752,583.071 589.909,584.308 590.241,581.487C591.395,571.68 594.493,573.304 599.499,573.295C624.382,573.248 625.713,573.196 625.542,575.499C625.031,582.406 623.611,582.043 609.821,595.828C605.091,600.557 601.713,603.404 604.491,603.528C605.531,603.575 605.521,603.302 617.502,603.434C622.089,603.484 619.894,609.044 619.238,611.423C618.441,614.316 617.258,613.873 590.502,613.827Z" style="fill:rgb(255,255,255);"/>
        <path d="M392.111,597.424C394.878,582.868 394.622,582.849 394.874,581.588C395.754,577.185 407.735,576.817 407.641,580.504C407.612,581.634 401.465,614.857 401.329,615.462C400.027,621.263 391.277,619.173 390.383,618.959C387.039,618.161 389.972,608.696 392.111,597.424Z" style="fill:rgb(255,255,255);"/>
    </g>
</svg>
